<?xml version="1.0" encoding="UTF-8"?>
<svg version="1.1" xmlns="http://www.w3.org/2000/svg" width="2000" height="2000">
<path d="M0 0 C5.04825494 3.20964404 9.59849543 6.85654893 14.1875 10.6875 C15.71084188 11.95063616 17.23427924 13.21365719 18.7578125 14.4765625 C19.49032227 15.08532227 20.22283203 15.69408203 20.97753906 16.32128906 C28.63397594 22.67639046 36.37331485 28.93146954 44.09790039 35.20336914 C47.90465036 38.29491428 51.70655962 41.39212113 55.5 44.5 C70.61292754 56.92196469 70.61292754 56.92196469 86 69 C84.68127483 71.8427328 83.20834765 74.14628917 81.19921875 76.546875 C80.64065186 77.21895996 80.08208496 77.89104492 79.5065918 78.58349609 C78.9062915 79.29844238 78.30599121 80.01338867 77.6875 80.75 C76.4161699 82.27823271 75.1453485 83.80688874 73.875 85.3359375 C73.22917969 86.11163086 72.58335937 86.88732422 71.91796875 87.68652344 C68.98173205 91.22824683 66.08329823 94.80019594 63.1875 98.375 C62.10817881 99.70581506 61.02875476 101.0365467 59.94921875 102.3671875 C59.44438965 102.98948242 58.93956055 103.61177734 58.41943359 104.25292969 C56.45257668 106.67378074 54.47692118 109.08736395 52.5 111.5 C48.82125001 115.99023896 45.15886173 120.49355792 41.5 125 C37.13661064 130.37417451 32.76210298 135.73890371 28.375 141.09375 C25.40911811 144.72305284 22.45433168 148.36129332 19.5 152 C15.13661064 157.37417451 10.76210298 162.73890371 6.375 168.09375 C3.40911811 171.72305284 0.45433168 175.36129332 -2.5 179 C-6.86338936 184.37417451 -11.23789702 189.73890371 -15.625 195.09375 C-18.59088194 198.7230529 -21.54565306 202.36130563 -24.5 206 C-30.3462472 213.19998197 -36.21474679 220.38142613 -42.09375 227.5546875 C-47.14535575 233.72277133 -52.17677626 239.90698189 -57.20214844 246.09643555 C-60.99875982 250.7712765 -64.80837869 255.43522694 -68.625 260.09375 C-71.59088189 263.72305284 -74.54566832 267.36129332 -77.5 271 C-81.86338936 276.37417451 -86.23789702 281.73890371 -90.625 287.09375 C-93.59088189 290.72305284 -96.54566832 294.36129332 -99.5 298 C-103.86338936 303.37417451 -108.23789702 308.73890371 -112.625 314.09375 C-115.59088194 317.7230529 -118.54565306 321.36130563 -121.5 325 C-127.3462472 332.19998197 -133.21474679 339.38142613 -139.09375 346.5546875 C-144.14535575 352.72277133 -149.17677626 358.90698189 -154.20214844 365.09643555 C-157.99875982 369.7712765 -161.80837869 374.43522694 -165.625 379.09375 C-168.59088189 382.72305284 -171.54566832 386.36129332 -174.5 390 C-178.86338936 395.37417451 -183.23789702 400.73890371 -187.625 406.09375 C-190.59088189 409.72305284 -193.54566832 413.36129332 -196.5 417 C-200.86338936 422.37417451 -205.23789702 427.73890371 -209.625 433.09375 C-212.59088189 436.72305284 -215.54566832 440.36129332 -218.5 444 C-222.86338936 449.37417451 -227.23789702 454.73890371 -231.625 460.09375 C-234.59088194 463.7230529 -237.54565306 467.36130563 -240.5 471 C-246.3462472 478.19998197 -252.21474679 485.38142613 -258.09375 492.5546875 C-263.14535575 498.72277133 -268.17677626 504.90698189 -273.20214844 511.09643555 C-276.99875982 515.7712765 -280.80837869 520.43522694 -284.625 525.09375 C-287.59088189 528.72305284 -290.54566832 532.36129332 -293.5 536 C-297.86338936 541.37417451 -302.23789702 546.73890371 -306.625 552.09375 C-309.59088189 555.72305284 -312.54566832 559.36129332 -315.5 563 C-319.86338936 568.37417451 -324.23789702 573.73890371 -328.625 579.09375 C-331.59088189 582.72305284 -334.54566832 586.36129332 -337.5 590 C-341.86338936 595.37417451 -346.23789702 600.73890371 -350.625 606.09375 C-353.59088194 609.7230529 -356.54565306 613.36130563 -359.5 617 C-365.3462472 624.19998197 -371.21474679 631.38142613 -377.09375 638.5546875 C-382.14535575 644.72277133 -387.17677626 650.90698189 -392.20214844 657.09643555 C-395.99875982 661.7712765 -399.80837869 666.43522694 -403.625 671.09375 C-406.59088189 674.72305284 -409.54566832 678.36129332 -412.5 682 C-416.86338936 687.37417451 -421.23789702 692.73890371 -425.625 698.09375 C-428.59088189 701.72305284 -431.54566832 705.36129332 -434.5 709 C-438.86338936 714.37417451 -443.23789702 719.73890371 -447.625 725.09375 C-450.59088189 728.72305284 -453.54566832 732.36129332 -456.5 736 C-460.86338936 741.37417451 -465.23789702 746.73890371 -469.625 752.09375 C-472.59088194 755.7230529 -475.54565306 759.36130563 -478.5 763 C-484.3462472 770.19998197 -490.21474679 777.38142613 -496.09375 784.5546875 C-501.14535575 790.72277133 -506.17677626 796.90698189 -511.20214844 803.09643555 C-514.99875982 807.7712765 -518.80837869 812.43522694 -522.625 817.09375 C-525.59088189 820.72305284 -528.54566832 824.36129332 -531.5 828 C-535.86338936 833.37417451 -540.23789702 838.73890371 -544.625 844.09375 C-547.59088189 847.72305284 -550.54566832 851.36129332 -553.5 855 C-557.86338936 860.37417451 -562.23789702 865.73890371 -566.625 871.09375 C-569.59088189 874.72305284 -572.54566832 878.36129332 -575.5 882 C-579.86338936 887.37417451 -584.23789702 892.73890371 -588.625 898.09375 C-591.59088194 901.7230529 -594.54565306 905.36130563 -597.5 909 C-603.3462472 916.19998197 -609.21474679 923.38142613 -615.09375 930.5546875 C-620.14535575 936.72277133 -625.17677626 942.90698189 -630.20214844 949.09643555 C-633.99875982 953.7712765 -637.80837869 958.43522694 -641.625 963.09375 C-644.59088194 966.7230529 -647.54565306 970.36130563 -650.5 974 C-655.65220965 980.34523572 -660.8195571 986.6777837 -666 993 C-667.68782258 995.06223625 -669.37514277 997.12488292 -671.0625 999.1875 C-672.375 1000.79166667 -673.6875 1002.39583333 -675 1004 C-679.27657556 1001.25713681 -683.16519927 998.27377664 -687 994.9375 C-691.5791841 991.00491366 -696.23153785 987.20060838 -701 983.5 C-706.14903726 979.49953942 -711.15352976 975.3660767 -716.10546875 971.125 C-720.56066155 967.3278381 -725.1449773 963.71768098 -729.76733398 960.12719727 C-733.78494748 956.99235528 -737.69434667 953.75448097 -741.5625 950.4375 C-747.85515946 945.04254546 -754.38467164 939.99127066 -761 935 C-758.38539947 930.20967831 -754.99218638 926.22216538 -751.5 922.0625 C-747.02349298 916.6844461 -742.60321296 911.27751255 -738.3125 905.75 C-734.37333417 900.68443401 -730.29622092 895.76440462 -726.12207031 890.89135742 C-722.82826659 887.02774202 -719.67372034 883.07410216 -716.5625 879.0625 C-712.35995526 873.64722092 -707.97594576 868.42803665 -703.48291016 863.25244141 C-699.52823345 858.67381312 -695.78134132 853.95964497 -692.07421875 849.1796875 C-688.97694697 845.2012953 -685.77993297 841.32881734 -682.5 837.5 C-678.71806589 833.0842747 -675.06728242 828.59084925 -671.5 824 C-667.49918743 818.85122701 -663.36609011 813.8464859 -659.125 808.89453125 C-655.81208736 805.0075059 -652.6335169 801.0326226 -649.5 797 C-645.49918743 791.85122701 -641.36609011 786.8464859 -637.125 781.89453125 C-633.81208736 778.0075059 -630.6335169 774.0326226 -627.5 770 C-623.49918743 764.85122701 -619.36609011 759.8464859 -615.125 754.89453125 C-611.81208562 751.00750386 -608.63355562 747.03259494 -605.5 743 C-601.42605858 737.75802578 -597.21979362 732.65567235 -592.90966797 727.60668945 C-589.60133299 723.72687182 -586.39087795 719.78349396 -583.22265625 715.7890625 C-580.35853172 712.19506441 -577.46170086 708.62822672 -574.5625 705.0625 C-573.71389404 704.01872192 -573.71389404 704.01872192 -572.84814453 702.95385742 C-569.03281692 698.26388499 -565.20654227 693.58298542 -561.375 688.90625 C-558.40911811 685.27694716 -555.45433168 681.63870668 -552.5 678 C-548.13661064 672.62582549 -543.76210298 667.26109629 -539.375 661.90625 C-536.40911811 658.27694716 -533.45433168 654.63870668 -530.5 651 C-526.13661064 645.62582549 -521.76210298 640.26109629 -517.375 634.90625 C-514.40911806 631.2769471 -511.45434694 627.63869437 -508.5 624 C-502.6537528 616.80001803 -496.78525321 609.61857387 -490.90625 602.4453125 C-485.85464425 596.27722867 -480.82322374 590.09301811 -475.79785156 583.90356445 C-472.00124018 579.2287235 -468.19162131 574.56477306 -464.375 569.90625 C-461.40911811 566.27694716 -458.45433168 562.63870668 -455.5 559 C-451.13661064 553.62582549 -446.76210298 548.26109629 -442.375 542.90625 C-439.40911811 539.27694716 -436.45433168 535.63870668 -433.5 532 C-429.13661064 526.62582549 -424.76210298 521.26109629 -420.375 515.90625 C-417.40911811 512.27694716 -414.45433168 508.63870668 -411.5 505 C-407.13661064 499.62582549 -402.76210298 494.26109629 -398.375 488.90625 C-395.40911806 485.2769471 -392.45434694 481.63869437 -389.5 478 C-383.6537528 470.80001803 -377.78525321 463.61857387 -371.90625 456.4453125 C-366.85464425 450.27722867 -361.82322374 444.09301811 -356.79785156 437.90356445 C-353.00124018 433.2287235 -349.19162131 428.56477306 -345.375 423.90625 C-342.40911811 420.27694716 -339.45433168 416.63870668 -336.5 413 C-332.13661064 407.62582549 -327.76210298 402.26109629 -323.375 396.90625 C-320.40911811 393.27694716 -317.45433168 389.63870668 -314.5 386 C-310.13661064 380.62582549 -305.76210298 375.26109629 -301.375 369.90625 C-298.40911811 366.27694716 -295.45433168 362.63870668 -292.5 359 C-288.13661064 353.62582549 -283.76210298 348.26109629 -279.375 342.90625 C-276.40911806 339.2769471 -273.45434694 335.63869437 -270.5 332 C-264.6537528 324.80001803 -258.78525321 317.61857387 -252.90625 310.4453125 C-247.85464425 304.27722867 -242.82322374 298.09301811 -237.79785156 291.90356445 C-234.00124018 287.2287235 -230.19162131 282.56477306 -226.375 277.90625 C-223.40911811 274.27694716 -220.45433168 270.63870668 -217.5 267 C-213.13661064 261.62582549 -208.76210298 256.26109629 -204.375 250.90625 C-201.40911811 247.27694716 -198.45433168 243.63870668 -195.5 240 C-191.13661064 234.62582549 -186.76210298 229.26109629 -182.375 223.90625 C-179.40911811 220.27694716 -176.45433168 216.63870668 -173.5 213 C-169.13661064 207.62582549 -164.76210298 202.26109629 -160.375 196.90625 C-157.40911806 193.2769471 -154.45434694 189.63869437 -151.5 186 C-145.6537528 178.80001803 -139.78525321 171.61857387 -133.90625 164.4453125 C-128.85464425 158.27722867 -123.82322374 152.09301811 -118.79785156 145.90356445 C-115.00124018 141.2287235 -111.19162131 136.56477306 -107.375 131.90625 C-104.40911811 128.27694716 -101.45433168 124.63870668 -98.5 121 C-94.13661064 115.62582549 -89.76210298 110.26109629 -85.375 104.90625 C-82.40911811 101.27694716 -79.45433168 97.63870668 -76.5 94 C-72.13661064 88.62582549 -67.76210298 83.26109629 -63.375 77.90625 C-60.40911806 74.2769471 -57.45434694 70.63869437 -54.5 67 C-48.6537528 59.80001803 -42.78525321 52.61857387 -36.90625 45.4453125 C-31.85826933 39.28165494 -26.83009947 33.10217104 -21.80883789 26.91674805 C-18.61090077 22.97855205 -15.40450436 19.04763398 -12.1875 15.125 C-8.08334505 10.1164109 -4.03300746 5.06598485 0 0 Z " fill="#04AF69" transform="translate(1657,498)"/>
<path d="M0 0 C0.9244349 -0.00525911 1.84886979 -0.01051822 2.80131787 -0.0159367 C5.91607692 -0.02995386 9.03041811 -0.02251109 12.14519501 -0.01523495 C14.39396652 -0.020837 16.64273511 -0.0277382 18.89149904 -0.03583091 C25.08444029 -0.05423199 31.27726034 -0.05377866 37.47022271 -0.05024779 C43.45884172 -0.04969966 49.44742493 -0.06315941 55.43602638 -0.07608646 C69.19979962 -0.10511658 82.96353938 -0.11353948 96.72733963 -0.11525763 C107.35361482 -0.11663546 117.97987685 -0.1228063 128.60614777 -0.1323595 C131.66320243 -0.13505206 134.72026711 -0.1377215 137.7773118 -0.14038414 C138.91724177 -0.14137885 138.91724177 -0.14137885 140.08020063 -0.14239367 C161.45892746 -0.16085871 182.83764973 -0.17269508 204.21638489 -0.17136383 C205.02258756 -0.17131709 205.82879023 -0.17127036 206.65942328 -0.17122221 C210.74574869 -0.17097288 214.8320741 -0.17067575 218.91839951 -0.17036808 C219.72998394 -0.17030825 220.54156838 -0.17024841 221.37774628 -0.17018676 C223.01896705 -0.17006545 224.66018782 -0.16994006 226.3014086 -0.16981059 C251.84619034 -0.1679716 277.3908527 -0.19050432 302.93560028 -0.23152828 C331.62281625 -0.27757976 360.30995379 -0.30342891 388.99720907 -0.30063862 C392.05426375 -0.30041472 395.11131842 -0.3002686 398.16837311 -0.30017567 C399.2974942 -0.30012322 399.2974942 -0.30012322 400.44942582 -0.30006972 C412.57788148 -0.29997729 424.70623372 -0.31915751 436.83465861 -0.34497246 C449.01643766 -0.37036537 461.19806492 -0.37340067 473.37985575 -0.3536445 C479.98298827 -0.34351381 486.58582002 -0.34380478 493.18892479 -0.36970425 C499.22776526 -0.39314774 505.26592842 -0.38916305 511.30475134 -0.36285185 C513.49512343 -0.35821312 515.68554482 -0.36382124 517.87585884 -0.38043208 C520.84291178 -0.40145211 523.80755304 -0.38586774 526.77452087 -0.36076355 C527.63432483 -0.37566809 528.49412879 -0.39057263 529.37998742 -0.40592882 C535.0289815 -0.30416541 535.0289815 -0.30416541 537.52308613 1.70113105 C541.54720679 6.41554728 542.014818 9.37241225 542.03443146 15.42626286 C542.03810815 16.1594833 542.04178483 16.89270375 542.04557294 17.64814299 C542.0566316 20.11778429 542.06045729 22.58738355 542.06426239 25.05704594 C542.07052536 26.82260618 542.07717201 28.58816511 542.08417511 30.35372257 C542.10159945 35.15956712 542.11214061 39.96540171 542.12038064 44.77127004 C542.12552738 47.77209061 542.13160323 50.77290808 542.13789177 53.77372646 C542.15694718 63.15765212 542.17117801 72.54156989 542.17950374 81.92551118 C542.1892808 92.7670004 542.21561109 103.6082857 542.25600463 114.44970304 C542.28613611 122.82342703 542.30096976 131.19709246 542.30428475 139.57086962 C542.30663849 144.57504417 542.31564089 149.57900096 542.34074593 154.58311749 C542.36398002 159.29041543 542.36827873 163.99735152 542.35798454 168.70469189 C542.35748795 170.43287959 542.36384478 172.16108483 542.37754059 173.88921833 C542.39519002 176.24811264 542.38818874 178.6056985 542.37500763 180.96459293 C542.3914615 181.9912563 542.3914615 181.9912563 542.40824777 183.03866035 C542.34468984 187.74748026 541.19194271 190.07485951 537.88726044 193.38590336 C533.94455265 196.01437522 530.5806971 195.66744336 526.00499916 195.64875889 C525.08118358 195.65286416 524.157368 195.65696942 523.205558 195.66119909 C520.08094315 195.67259229 516.95650312 195.66961813 513.83187103 195.66678715 C511.58070225 195.67195137 509.32953531 195.67797682 507.07837093 195.68479395 C500.86953356 195.70097644 494.66074238 195.70451544 488.45188642 195.70598888 C482.45071617 195.70930363 476.44956738 195.72193449 470.44841024 195.73414571 C454.36714088 195.76628659 438.28587526 195.77807414 422.20457954 195.78764321 C414.60025066 195.79231249 406.99592481 195.79951745 399.39159829 195.80703396 C373.37148487 195.83270533 347.35137314 195.85414486 321.33124733 195.86103916 C319.69745685 195.86148243 318.06366638 195.861926 316.4298759 195.86236987 C314.79209812 195.86281115 313.15432034 195.86325211 311.51654255 195.86369276 C308.23077273 195.86457788 304.94500291 195.8654721 301.65923309 195.86637211 C300.43721061 195.86670028 300.43721061 195.86670028 299.1905008 195.86703508 C272.76346035 195.87429933 246.33652953 195.90615089 219.90953108 195.95275284 C191.98224315 196.00191058 164.0550179 196.02938298 136.12768543 196.031775 C133.06385921 196.03211792 130.00003302 196.03254878 126.93620682 196.03304386 C125.8045715 196.03321117 125.8045715 196.03321117 124.65007486 196.03338185 C112.49360895 196.03568599 100.3372553 196.05775612 88.18082733 196.08681797 C75.96968549 196.11550659 63.75868801 196.12204544 51.54752173 196.10593802 C44.92820304 196.09779426 38.30918275 196.10011245 31.689888 196.12805271 C25.63617313 196.15337292 19.5831248 196.15127663 13.5294119 196.12687129 C11.33359313 196.12292965 9.13772842 196.1292408 6.94197442 196.14656001 C3.9675628 196.1685449 0.99554563 196.15391985 -1.97879601 196.12977695 C-2.84077601 196.14496734 -3.70275601 196.16015773 -4.59085661 196.17580843 C-10.25379533 196.07587359 -10.25379533 196.07587359 -12.74985529 194.07084578 C-16.76402268 189.36822403 -17.23948953 186.42092953 -17.25318146 180.38350773 C-17.25615258 179.65437084 -17.2591237 178.92523394 -17.26218486 178.17400199 C-17.27089215 175.71817575 -17.27238182 173.26239813 -17.27387238 170.80655766 C-17.27849913 169.0508498 -17.2835236 167.29514296 -17.28891754 165.53943729 C-17.30205765 160.76044718 -17.30848968 155.98147113 -17.3129282 151.20246577 C-17.31585644 148.218396 -17.31996078 145.23433009 -17.32443237 142.25026226 C-17.3381118 132.91865992 -17.34777617 123.58706639 -17.35163426 114.25545472 C-17.3561157 103.47456288 -17.37366572 92.69379779 -17.40263486 81.9129445 C-17.42423542 73.58592839 -17.43433768 65.25894797 -17.43567538 56.93190414 C-17.43672462 51.95571769 -17.44265745 46.97965032 -17.460495 42.00349331 C-17.4769475 37.32250322 -17.47914493 32.64172205 -17.47035599 27.96071339 C-17.46958409 26.24220757 -17.47394844 24.52369065 -17.48381424 22.80521297 C-17.49649083 20.45964189 -17.49068073 18.11481554 -17.48023224 15.76924992 C-17.4816988 14.45644897 -17.48316536 13.14364801 -17.48467636 11.79106522 C-17.07897908 8.07681879 -16.44199857 6.28332376 -14.11273956 3.38590336 C-9.58132582 -0.19744576 -5.52319955 -0.0396088 0 0 Z " fill="#03AF69" transform="translate(273.1127395629883,505.6140966415405)"/>
<path d="M0 0 C1.38065825 -0.00570851 1.38065825 -0.00570851 2.78920859 -0.01153234 C5.9023399 -0.02191537 9.01529114 -0.01792963 12.12843513 -0.01409245 C14.37135406 -0.0185412 16.61427141 -0.02385404 18.85718644 -0.02996117 C25.04322349 -0.04419492 31.22921042 -0.04580345 37.41526151 -0.04536426 C43.39440586 -0.04683912 49.37353145 -0.05763881 55.3526653 -0.06805556 C69.85541674 -0.0928191 84.35815677 -0.10158078 98.86092644 -0.10659205 C99.61233554 -0.10685322 100.36374464 -0.1071144 101.13792372 -0.10738349 C102.26724776 -0.1077739 102.26724776 -0.1077739 103.41938642 -0.1081722 C111.75490084 -0.11125196 120.09041208 -0.11775577 128.4259243 -0.12438488 C153.5915092 -0.14403464 178.75709065 -0.16043817 203.92268372 -0.16326141 C204.72793556 -0.16335547 205.5331874 -0.16344954 206.36284081 -0.16354645 C209.62631658 -0.16392494 212.88979234 -0.16428893 216.15326811 -0.16464943 C218.60968162 -0.16492115 221.06609512 -0.16519783 223.52250862 -0.16547489 C224.74004658 -0.16560693 224.74004658 -0.16560693 225.98218126 -0.16574163 C251.49305361 -0.16864786 277.00385023 -0.19074957 302.51469612 -0.22699833 C331.15867591 -0.26769772 359.80260409 -0.29141978 388.44661438 -0.29172093 C391.49920663 -0.29181775 394.55179886 -0.29198448 397.6043911 -0.29220104 C398.35604834 -0.29224516 399.10770559 -0.29228927 399.88214033 -0.29233472 C411.99395754 -0.29345597 424.10569907 -0.31088497 436.21749188 -0.33402036 C448.38381514 -0.35682931 460.55003582 -0.3611099 472.71637259 -0.34647106 C479.31135883 -0.33902233 485.9061344 -0.34027835 492.50109673 -0.36288166 C498.5325413 -0.38335628 504.56351874 -0.38097941 510.59495761 -0.36000682 C512.78269822 -0.35648979 514.97047176 -0.36151445 517.15816914 -0.37571125 C520.1214427 -0.39370926 523.08304401 -0.3812012 526.04626465 -0.36076355 C526.90503596 -0.37332692 527.76380727 -0.3858903 528.64860195 -0.39883438 C532.94902033 -0.33489832 534.62293207 -0.16008584 538.09289277 2.61136383 C541.72379591 7.2887908 542.40223819 9.49881439 542.42312813 15.41394711 C542.42836481 16.14731641 542.43360149 16.88068571 542.43899685 17.63627833 C542.45403194 20.10052731 542.45470277 22.56456929 542.45536995 25.02886105 C542.46298913 26.79294849 542.47141621 28.5570326 542.48059273 30.32111263 C542.50256958 35.11871187 542.51134101 39.91624737 542.51641917 44.71389127 C542.52005926 47.71054325 542.52629752 50.70717845 542.53342056 53.70382404 C542.557927 64.15625272 542.57096935 74.60863168 542.57451057 85.06108761 C542.57814585 94.80698267 542.6080376 104.5525628 542.64991516 114.2983616 C542.68459802 122.66278885 542.70005868 131.02711164 542.70075661 139.39161032 C542.70155017 144.38857567 542.71032481 149.38522043 542.73875427 154.38211155 C542.76490027 159.08293575 542.76715958 163.78317282 542.75109863 168.48403645 C542.74928132 170.20858062 542.75600037 171.93315829 542.77191734 173.65762997 C542.79234088 176.01419135 542.7818505 178.36869129 542.7637043 180.7252264 C542.76672129 182.70215843 542.76672129 182.70215843 542.76979923 184.71902847 C541.95705627 189.35470953 540.44267356 190.96000358 537.14897346 194.26006222 C533.81150571 195.9287961 530.05979969 195.40371998 526.38976002 195.39986992 C525.00576741 195.40429705 525.00576741 195.40429705 523.59381536 195.40881363 C520.46714792 195.41755343 517.34051726 195.41908968 514.21383858 195.42069149 C511.96353403 195.42541911 509.71323034 195.43056956 507.46292764 195.43610913 C501.25184205 195.45005635 495.04076235 195.45761039 488.82966506 195.46408212 C482.82772809 195.47125548 476.82580061 195.48306531 470.82387074 195.4945571 C453.97393072 195.52643308 437.12398144 195.54624617 420.27402136 195.56384262 C415.71194842 195.56860887 411.14987577 195.57361778 406.58780313 195.57864785 C378.28357086 195.60968998 349.97933627 195.63631499 321.67509174 195.65306664 C315.11552298 195.65700404 308.55595426 195.66101585 301.99638557 195.66509151 C301.18142103 195.66559318 300.36645649 195.66609485 299.52679605 195.66661172 C273.09307711 195.68303636 246.65945063 195.72150168 220.22577719 195.77237862 C193.06333662 195.82456315 165.9009453 195.85737574 138.73845358 195.86464417 C134.90458845 195.86567282 131.0707234 195.86690914 127.23685837 195.8682642 C126.48228832 195.86852224 125.72771827 195.86878027 124.95028247 195.86904613 C112.79096645 195.87374702 100.63177202 195.89870618 88.47250157 195.93101563 C76.25788354 195.96299973 64.04340288 195.97304267 51.82874795 195.96058368 C45.20740606 195.95442694 38.5863662 195.95877209 31.96505928 195.98875332 C25.90946237 196.01595035 19.85452267 196.01574228 13.7989122 195.99324287 C11.60238726 195.98999839 9.40581959 195.99701233 7.20936622 196.01504009 C4.23400181 196.03799017 1.26101971 196.02432389 -1.71428967 196.0011425 C-3.00768844 196.02435685 -3.00768844 196.02435685 -4.32721648 196.04804018 C-9.99200388 195.94993449 -9.99200388 195.94993449 -12.48831239 193.94517476 C-16.49738924 189.24854493 -16.97928556 186.29411069 -17.00492668 180.26439571 C-17.00930894 179.53596439 -17.01369119 178.80753306 -17.01820624 178.05702806 C-17.03161589 175.6035447 -17.03777794 173.15009727 -17.04389763 170.69658566 C-17.0517969 168.94249972 -17.06006575 167.18841542 -17.0686779 165.43433285 C-17.09491865 159.66271681 -17.11020778 153.89109343 -17.12446404 148.11943722 C-17.12982291 146.13407798 -17.13520041 144.14871878 -17.14059639 142.16335964 C-17.1622283 133.90576844 -17.18096559 125.6481792 -17.19221878 117.39056683 C-17.20846123 105.54887809 -17.24164268 93.70751733 -17.29861963 81.86595225 C-17.33729874 73.54401858 -17.35684908 65.22217271 -17.36213934 56.90015149 C-17.36579564 51.92774613 -17.3778464 46.95569042 -17.41024208 41.98338223 C-17.44028691 37.30475279 -17.4466474 32.62668521 -17.43485832 27.94797993 C-17.43463728 26.2314911 -17.44296734 24.51497648 -17.46051216 22.79857731 C-17.4831824 20.45292914 -17.47492101 18.10932203 -17.45902824 15.76366329 C-17.46233839 14.45178413 -17.46564854 13.13990498 -17.46905899 11.7882719 C-16.6539158 7.13480092 -15.16310968 5.58030217 -11.85102654 2.26006222 C-7.9148422 -0.36406067 -4.56764377 -0.02023302 0 0 Z " fill="#03AF69" transform="translate(272.8510265350342,903.7399377822876)"/>
<path d="M0 0 C1.38447218 -0.0066073 1.38447218 -0.0066073 2.7969135 -0.01334807 C5.9126763 -0.02573223 9.02826791 -0.02379026 12.14405251 -0.02196407 C14.39124711 -0.0278449 16.6384396 -0.03458324 18.8856293 -0.04210895 C25.07887236 -0.06022687 31.27207287 -0.06570816 37.46533918 -0.06909573 C43.4529046 -0.07425307 49.44044581 -0.088716 55.42799549 -0.10271808 C71.4708174 -0.1396281 87.51364104 -0.15599519 103.55649671 -0.16959644 C111.14345307 -0.17613722 118.73040629 -0.1849618 126.31736006 -0.19397634 C152.28099554 -0.22469994 178.24463048 -0.25041736 204.20828247 -0.26129913 C205.83828073 -0.26199553 207.46827899 -0.2626932 209.09827725 -0.26339215 C210.31078809 -0.26391044 210.31078809 -0.26391044 211.5477941 -0.26443921 C215.64332629 -0.26619266 219.73885847 -0.267964 223.83439064 -0.26975155 C224.64716381 -0.27010109 225.45993698 -0.27045063 226.29733963 -0.27081076 C252.66222213 -0.28233959 279.02696195 -0.3217059 305.39178544 -0.37749786 C333.2572938 -0.43635796 361.12271946 -0.46982033 388.98829138 -0.47431129 C392.04566044 -0.4749003 395.10302946 -0.4755953 398.16039848 -0.4763689 C398.91322496 -0.47654786 399.66605143 -0.47672682 400.44169082 -0.47691121 C412.56909991 -0.48039731 424.69635214 -0.50710238 436.82370651 -0.54209781 C449.00675044 -0.57667617 461.18960014 -0.585458 473.37268232 -0.56788719 C479.97597996 -0.55905197 486.57886179 -0.56241096 493.1821022 -0.59570599 C499.22233752 -0.62589374 505.26166746 -0.62403746 511.3019063 -0.59621798 C513.49166008 -0.59185533 515.68147547 -0.59943227 517.87113802 -0.619891 C520.84004518 -0.64590505 523.80570197 -0.62909211 526.77452087 -0.60127258 C527.63198367 -0.61908998 528.48944646 -0.63690738 529.37289298 -0.65526471 C532.85018746 -0.5840974 535.11062441 -0.45019901 537.88864553 1.75333646 C541.73318793 6.02340016 542.7639516 9.00820966 542.76827431 14.9005518 C542.77692869 15.6373388 542.78558306 16.3741258 542.7944997 17.13323969 C542.81597732 19.58578368 542.79485336 22.03603196 542.77359962 24.48854923 C542.78009716 26.25323408 542.78916127 28.01791106 542.80059242 29.78257084 C542.82363464 34.56367382 542.80897807 39.34397657 542.78612304 44.12505364 C542.76718328 49.13241483 542.77836896 54.13972312 542.78502846 59.14710331 C542.79136513 67.55434194 542.77311815 75.96126056 542.7403965 84.36843204 C542.70289128 94.08492682 542.7046872 103.80081578 542.72743767 113.51734263 C542.74839237 122.87036915 542.74111027 132.22317201 542.72111893 141.57619381 C542.71313737 145.55418069 542.71511905 149.53197814 542.72514343 153.50995922 C542.73570065 158.19451074 542.72155045 162.87835681 542.68840027 167.56279659 C542.68019831 169.28086142 542.68047093 170.99899095 542.68987846 172.7170496 C542.70132094 175.06473023 542.68190619 177.41022301 542.65474892 179.75772953 C542.649973 181.72686864 542.649973 181.72686864 542.64510059 183.73578835 C541.81789942 188.35589798 540.2964722 189.97166178 537.01310158 193.26564884 C533.67563382 194.93438272 529.9239278 194.4093066 526.25388813 194.40545654 C524.86989552 194.40988368 524.86989552 194.40988368 523.45794347 194.41440025 C520.33127603 194.42314005 517.20464537 194.4246763 514.07796669 194.42627811 C511.82766214 194.43100574 509.57735845 194.43615619 507.32705575 194.44169575 C501.11597017 194.45564298 494.90489046 194.46319702 488.69379318 194.46966875 C482.6918562 194.47684211 476.68992872 194.48865193 470.68799885 194.50014373 C453.83805883 194.5320197 436.98810955 194.5518328 420.13814947 194.56942925 C415.57607654 194.57419549 411.01400389 194.57920441 406.45193124 194.58423448 C378.14769898 194.61527661 349.84346438 194.64190162 321.53921986 194.65865326 C314.97965109 194.66259067 308.42008237 194.66660247 301.86051369 194.67067814 C301.04554914 194.67117981 300.2305846 194.67168147 299.39092416 194.67219834 C272.95720522 194.68862299 246.52357874 194.72708831 220.0899053 194.77796524 C192.92746473 194.83014977 165.76507342 194.86296236 138.6025817 194.87023079 C134.76871656 194.87125944 130.93485152 194.87249577 127.10098648 194.87385082 C126.34641643 194.87410886 125.59184639 194.8743669 124.81441058 194.87463275 C112.65509456 194.87933364 100.49590013 194.90429281 88.33662968 194.93660225 C76.12201166 194.96858635 63.907531 194.97862929 51.69287606 194.9661703 C45.07153417 194.96001356 38.45049431 194.96435872 31.82918739 194.99433994 C25.77359048 195.02153697 19.71865078 195.0213289 13.66304032 194.99882949 C11.46651537 194.99558501 9.2699477 195.00259896 7.07349434 195.02062672 C4.09812992 195.0435768 1.12514783 195.02991051 -1.85016155 195.00672913 C-3.14356032 195.02994348 -3.14356032 195.02994348 -4.46308836 195.05362681 C-10.12787577 194.95552111 -10.12787577 194.95552111 -12.62418427 192.95076139 C-16.63671946 188.25008012 -17.11440721 185.29822944 -17.13406944 179.26325321 C-17.13774613 178.53411632 -17.14142282 177.80497943 -17.14521092 177.05374748 C-17.15626935 174.59792567 -17.16009523 172.14214614 -17.16390038 169.68630314 C-17.17016336 167.93059498 -17.17681001 166.17488814 -17.1838131 164.41918278 C-17.20123728 159.6401969 -17.21177856 154.86122104 -17.22001863 150.08221126 C-17.2251654 147.09814164 -17.23124125 144.11407515 -17.23752975 141.13000774 C-17.25658514 131.79840783 -17.27081596 122.46681584 -17.27914172 113.1352002 C-17.28891873 102.35427101 -17.31524891 91.57354689 -17.35564262 80.79268998 C-17.38577444 72.46567472 -17.40060778 64.13871835 -17.40392274 55.81164962 C-17.40627643 50.83542023 -17.41527837 45.85940983 -17.44038391 40.88323879 C-17.4636186 36.20220507 -17.46791648 31.52153525 -17.45762253 26.84045887 C-17.45712594 25.12194644 -17.46348237 23.40341638 -17.47717857 21.68495846 C-17.49482901 19.33919893 -17.48782627 16.99475506 -17.47464561 14.6489954 C-17.47703397 13.33619445 -17.47942232 12.0233935 -17.48188305 10.6708107 C-16.89926494 6.66278932 -15.86382525 5.07002117 -12.98689842 2.26564884 C-8.79057427 -0.21967536 -4.75607314 -0.01794588 0 0 Z " fill="#03AF69" transform="translate(272.9868984222412,1305.734351158142)"/>
<path d="M0 0 C0.68400879 0.1556543 1.36801758 0.31130859 2.07275391 0.47167969 C20.31173771 4.77888256 37.44292516 13.24038539 52 25 C52.59393555 25.47195801 53.18787109 25.94391602 53.79980469 26.43017578 C61.88473712 32.90281979 68.79687736 39.64918113 75 48 C76.04607422 49.37671875 76.04607422 49.37671875 77.11328125 50.78125 C99.0233547 80.15972891 106.94801318 116.04650881 102.27758789 152.30053711 C97.92978418 179.62022545 84.89733738 204.05623026 66 224 C65.16726563 224.8971875 64.33453125 225.794375 63.4765625 226.71875 C41.24304385 249.93028267 8.5925111 264.35258951 -23.58203125 265.203125 C-62.30804152 265.69057658 -96.95611563 254.1204465 -125.38623047 227.01855469 C-132.56286365 219.97226426 -138.63185004 212.49843248 -144 204 C-144.39026367 203.38431152 -144.78052734 202.76862305 -145.18261719 202.13427734 C-163.90953507 172.03689366 -170.01208817 134.56454565 -162 100 C-152.86763232 65.33011878 -131.84333472 34.47522598 -100.93603516 15.74951172 C-70.47704437 -1.94342259 -34.51008337 -8.0980633 0 0 Z " fill="#04AF69" transform="translate(1640,1236)"/>
</svg>
